<?xml version="1.0" encoding="UTF-8" standalone="no"?><!DOCTYPE svg PUBLIC "-//W3C//DTD SVG 1.1//EN" "http://www.w3.org/Graphics/SVG/1.1/DTD/svg11.dtd"><svg width="100%" height="100%" viewBox="0 0 2250 2250" version="1.1" xmlns="http://www.w3.org/2000/svg" xmlns:xlink="http://www.w3.org/1999/xlink" xml:space="preserve" xmlns:serif="http://www.serif.com/" style="fill-rule:evenodd;clip-rule:evenodd;stroke-linejoin:round;stroke-miterlimit:2;"><g><path d="M1329.63,497.758c59.677,-49.782 132.35,-79.62 208.095,-88.584c6.915,13.926 11.909,28.877 16.871,43.796c10.95,-1.985 22.922,-4.002 34.834,-5.955c24.906,56.729 36.848,118.454 33.87,180.177c61.755,-2.978 123.447,7.971 179.184,32.878c-0.992,11.911 -2.978,23.883 -4.962,35.825c14.95,4.963 28.876,9.957 42.834,15.943c-7.97,76.643 -37.872,149.347 -87.653,209.054c77.697,25.899 144.415,75.682 192.18,140.383c-17.958,23.883 -36.847,44.82 -58.745,63.71c21.898,18.951 40.787,39.856 58.745,63.74c-47.765,64.701 -114.483,114.514 -192.18,140.351c49.781,59.739 79.683,132.443 87.653,209.086c-13.958,5.986 -27.884,10.949 -42.834,15.912c1.984,12.003 3.97,23.945 4.962,35.887c-55.737,24.876 -117.429,35.793 -179.184,32.815c2.978,61.725 -8.964,123.48 -33.87,180.179c-11.912,-1.955 -23.884,-3.94 -34.834,-5.956c-4.962,14.919 -9.956,29.87 -16.871,43.827c-75.745,-8.994 -148.418,-38.833 -208.095,-88.584c-26.953,77.604 -76.674,144.353 -141.438,192.15c-22.859,-16.935 -44.757,-36.88 -63.677,-58.746c-18.952,21.866 -40.818,41.811 -63.709,58.746c-64.764,-47.797 -114.516,-114.546 -140.414,-192.15c-59.739,49.751 -133.405,79.59 -209.086,88.584c-5.924,-13.957 -11.942,-28.908 -15.912,-43.827c-11.942,2.016 -23.882,4.001 -35.824,5.956c-24.908,-56.699 -36.817,-118.454 -32.847,-180.179c-62.778,2.978 -124.502,-7.939 -180.24,-32.815c1.023,-11.942 3.009,-23.884 4.993,-35.887c-13.956,-4.963 -28.876,-9.926 -42.834,-15.912c7.972,-76.643 38.864,-149.347 87.623,-209.086c-77.635,-25.837 -144.385,-75.65 -191.158,-140.351c16.935,-23.884 35.888,-44.789 57.753,-63.74c-21.865,-18.89 -40.818,-39.827 -57.753,-63.71c46.773,-64.701 113.523,-114.484 191.158,-140.383c-48.759,-59.707 -79.651,-132.411 -87.623,-209.054c13.958,-5.986 28.878,-10.98 42.834,-15.943c-1.984,-11.942 -3.97,-23.914 -4.993,-35.825c55.738,-24.907 117.462,-35.856 180.24,-32.878c-3.97,-61.723 7.939,-123.448 32.847,-180.177c11.942,1.953 23.882,3.97 35.824,5.955c3.97,-14.919 9.988,-29.87 15.912,-43.796c75.681,8.964 149.347,38.802 209.086,88.584c25.898,-77.635 75.65,-144.353 140.414,-192.15c22.891,16.966 44.757,36.848 63.709,58.746c18.92,-21.898 40.818,-41.78 63.677,-58.746c64.764,47.797 114.485,114.515 141.438,192.15Z" style="fill:#e82e24;"/><path d="M1124.99,1362.88c-131.389,-0 -237.932,-106.451 -237.932,-237.9c-0,-131.389 106.543,-237.901 237.932,-237.901c131.387,-0 237.962,106.512 237.962,237.901c0,131.449 -106.575,237.9 -237.962,237.9Zm0.06,-691.339c-250.461,0 -453.468,203.007 -453.468,453.439c-0,250.462 203.007,453.469 453.468,453.469c250.401,-0 453.408,-203.007 453.408,-453.469c0,-250.432 -203.007,-453.439 -453.408,-453.439Z" style="fill:#fff;fill-rule:nonzero;"/></g></svg>